<?xml version="1.0" encoding="utf-8"?>
<!-- Svg Vector Icons : http://www.onlinewebfonts.com/icon -->
<!DOCTYPE svg PUBLIC "-//W3C//DTD SVG 1.1//EN" "http://www.w3.org/Graphics/SVG/1.1/DTD/svg11.dtd">
<svg version="1.1" xmlns="http://www.w3.org/2000/svg" xmlns:xlink="http://www.w3.org/1999/xlink" x="0px" y="0px" viewBox="0 0 1000 1000" enable-background="new 0 0 1000 1000" xml:space="preserve">
<metadata> Svg Vector Icons : http://www.onlinewebfonts.com/icon </metadata>
<g><path d="M89.2,903.4c3.1,5.9,5.1,10.9,7.2,15.8c3.1,4.9,5.1,8.9,8.3,12.9c4.1,5.9,9.3,8.9,15.4,8.9c6.2,0,10.3-2,13.4-5.9c3.1-3,5.1-7.9,5.1-13.8c0-3,0-7.9-1-13.9c-1.1-6.9-2.1-10.8-2.1-12.8c-2.1-25.7-3.1-47.5-3.1-68.2c0-36.6,4.1-70.2,10.3-99.9c7.2-29.6,16.5-54.4,27.8-76.1c12.4-21.8,27.8-39.6,46.3-55.4c18.5-15.8,39.1-28.7,60.7-38.6c21.6-9.9,47.3-17.8,76.1-23.7c28.8-5,58.6-8.9,88.5-11.9c29.8-2,62.8-3,100.9-3h79.6v140.4c0,9.9,3.1,17.8,10.3,24.7c8.2,6.9,16.5,10.9,26.7,10.9c9.3,0,18.5-4,25.8-10.9l293.3-281.8c7.2-6.9,11.3-14.8,11.3-24.7c0-9.9-4.1-17.8-11.3-24.7L685.4,69.9C678.2,63,668.9,59,659.7,59c-10.3,0-18.5,4-26.7,10.9c-7.2,6.9-10.3,14.8-10.3,24.7V235H543c-272.7,0-440.4,74.2-502.2,222.5C20.3,506.9,10,568.2,10,641.4c0,60.3,24.7,143.3,73,248.1C84.1,892.5,86.1,896.5,89.2,903.4z"/></g>
</svg>